<svg width="264" height="125" viewBox="0 0 264 125" fill="none" xmlns="http://www.w3.org/2000/svg">
<path d="M44.1143 50.1792L65.8872 108.286H59.6325L53.6148 91.7657H27.1271L21.1094 108.286H15.0205L36.7935 50.1792H44.1143ZM51.9326 86.8048L40.3946 55.0689H40.2288L28.8566 86.8048H51.9326Z" fill="white"/>
<path d="M70.2704 109.521C71.5735 115.621 76.9279 119.609 84.2487 119.609C92.8489 119.609 98.227 114.316 98.227 104.631V97.154C96.0236 103.183 90.4323 107.646 83.6801 107.646C73.9427 107.646 65.4136 99.0292 65.4136 86.3301C65.4136 73.631 74.0138 65.0146 83.7749 65.0146C90.4323 65.0146 96.2843 69.3347 98.3928 75.8385V65.9878H103.581V104.489C103.581 116.855 96.1895 124.024 84.2487 124.024C73.6821 124.024 66.5508 118.256 65.4846 109.545H70.2704V109.521ZM71.0997 86.3301C71.0997 96.347 77.2833 103.088 84.9832 103.088C91.8065 103.088 98.3928 97.2252 98.3928 87.3033V85.3569C98.3928 75.435 91.7354 69.5721 84.9832 69.5721C77.2596 69.5721 71.0997 76.337 71.0997 86.3301Z" fill="white"/>
<path d="M114.859 87.4693C115.024 98.7916 121.445 104.726 128.505 104.726C135.565 104.726 139.475 100.406 140.778 94.1393H145.563C144.189 103.183 137.603 109.283 128.434 109.283C117.867 109.283 109.433 101.142 109.433 87.137C109.433 73.1324 117.796 64.9907 128.529 64.9907C139.261 64.9907 145.658 73.7021 145.516 87.4455H114.882L114.859 87.4693ZM115.19 83.1492H140.28C139.143 73.1324 134.523 69.4057 128.505 69.4057C121.682 69.4057 116.399 74.5328 115.19 83.1492Z" fill="white"/>
<path d="M156.628 65.9639V74.5091C158.831 68.5749 163.854 64.9907 170.345 64.9907C179.609 64.9907 184.798 71.4233 184.798 82.1523V108.286H179.443V82.8169C179.443 74.2717 175.131 69.6431 168.142 69.6431C161.153 69.6431 156.77 74.2717 156.77 82.8169V108.286H151.416V65.9639H156.604H156.628Z" fill="white"/>
<path d="M221.259 80.6333C220.122 73.726 215.81 69.5721 209.484 69.5721C202.424 69.5721 196.004 76.1709 196.004 87.1609C196.004 98.1509 202.424 104.75 209.484 104.75C215.81 104.75 220.288 100.596 221.496 93.6885H226.448C225.24 103.041 218.985 109.307 209.461 109.307C199.155 109.307 190.294 100.691 190.294 87.1609C190.294 73.631 199.321 65.0146 209.461 65.0146C218.961 65.0146 225.311 71.115 226.187 80.6333H221.236H221.259Z" fill="white"/>
<path d="M231.992 124C229.955 124 228.249 123.929 226.472 123.668V119.442H231.826C236.873 119.442 239.218 117.33 241.658 110.494L242.63 107.883L225.5 65.9639H231.352L239.479 87.1369C241.114 91.5282 243.222 96.8214 245.236 102.02L258.48 65.9639H264L245.876 112.274C242.464 120.985 238.721 124 231.992 124Z" fill="white"/>
<path d="M0.402764 58.5345L0 58.1072L63.8263 0L64.229 0.450995L0.402764 58.5345Z" fill="white"/>
<path d="M43.8776 18.2062L51.9329 40.3287H28.8569L33.3347 27.8195L24.9003 35.4864L15.0444 61.8103H21.1333L27.151 45.2896H53.6387L59.6328 61.8103H65.8875L48.1185 14.3608L43.8776 18.2062Z" fill="white"/>
<path d="M106.827 45.6932C103.984 39.0232 100.904 36.3409 94.7205 35.2728C103.179 33.8011 108.865 27.7958 108.865 19.8915C108.865 9.96959 101.07 3.70312 89.2003 3.70312H66.6929V61.8103H72.45V37.8126H84.9594C94.9574 37.8126 98.2032 39.9252 101.283 47.2598L107.372 61.8341H113.793L106.803 45.7169L106.827 45.6932ZM72.4737 32.7567V8.75902H88.7975C97.3266 8.75902 102.942 13.0791 102.942 20.5561C102.942 28.0331 97.0897 32.7567 88.4895 32.7567H72.4974H72.4737Z" fill="white"/>
</svg>
