<svg width="324" height="63" viewBox="0 0 324 63" fill="none" xmlns="http://www.w3.org/2000/svg">
<path d="M138.608 42.3458C139.054 50.4915 145.171 55.0907 155.157 55.0907C165.143 55.0907 169.994 51.0864 169.994 45.2364C169.994 38.5703 163.432 35.9009 154.267 34.1237C142.861 31.9729 135.553 29.0136 135.553 18.717C135.553 10.4949 142.861 5.01102 154.19 5.01102C165.519 5.01102 173.425 10.2661 173.425 21.0814H168.429C168.129 13.7517 162.986 9.60254 154.19 9.60254C145.394 9.60254 140.919 12.9356 140.919 18.4195C140.919 25.3831 147.182 27.6788 155.311 29.1585C166.794 31.3093 175.367 34.9398 175.367 44.8627C175.367 53.7559 167.838 59.6822 155.165 59.6822C141.671 59.6822 133.619 53.2373 133.619 42.3458H138.616H138.608Z" fill="#594538"/>
<path d="M191.164 59.0873C184.755 59.0873 181.025 56.0517 181.025 48.7907V24.2695H174.838V20.2653H181.025V12.1195H185.945V20.2653H195.639V24.2695H185.945V47.8983C185.945 53.0085 188.032 54.8619 192.653 54.8619H195.631V58.7898C194.365 59.011 192.945 59.0873 191.156 59.0873H191.164Z" fill="#594538"/>
<path d="M223.963 58.7898V51.1627C221.951 56.4941 217.477 59.6822 211.512 59.6822C203.092 59.6822 198.541 53.9085 198.541 44.1992V20.2729H203.461V43.4593C203.461 51.5364 207.337 55.4644 213.677 55.4644C220.017 55.4644 223.817 51.239 223.817 43.4593V20.2729H228.737V58.7975H223.963V58.7898Z" fill="#594538"/>
<path d="M264.367 58.7898V49.6754C262.502 55.3805 257.283 59.6746 250.95 59.6746C241.709 59.6746 234.102 51.8263 234.102 39.5237C234.102 27.2212 242.154 19.3729 250.804 19.3729C256.845 19.3729 262.134 23.1483 264.222 28.7847V5.01102H269.142V58.7898H264.367ZM239.314 39.5314C239.314 49.3856 244.979 55.5331 252.063 55.5331C258.327 55.5331 264.367 50.6441 264.367 40.4237V38.6466C264.367 28.4263 258.258 23.5373 252.063 23.5373C244.979 23.5373 239.314 29.6847 239.314 39.539V39.5314Z" fill="#594538"/>
<path d="M282.475 5.89576V10.9297H277.409V5.89576H282.475ZM282.398 20.2729V58.7975H277.478V20.2729H282.398Z" fill="#594538"/>
<path d="M305.885 19.3805C316.025 19.3805 324 27.2288 324 39.5314C324 51.8339 316.025 59.6822 305.885 59.6822C295.746 59.6822 287.771 51.8339 287.771 39.5314C287.771 27.2288 295.822 19.3805 305.885 19.3805ZM305.885 55.5331C312.893 55.5331 318.78 49.4619 318.78 39.5314C318.78 29.6008 312.893 23.5297 305.885 23.5297C298.877 23.5297 292.99 29.6008 292.99 39.5314C292.99 49.4619 298.877 55.5331 305.885 55.5331Z" fill="#594538"/>
<path d="M0.368435 55.8153L0 55.4187L58.5735 2.52457L58.9419 2.92881L0.368435 55.8153Z" fill="#594538"/>
<path d="M40.2822 19.1059L47.6585 39.2339H26.4812L30.5954 27.8542L22.8583 34.8407L13.8086 58.7898H19.3965L24.9154 43.7568H49.2244L54.7356 58.7898H60.477L44.1661 15.6051L40.2822 19.1059Z" fill="#594538"/>
<path d="M98.0498 44.1305C95.4401 38.0593 92.6077 35.611 86.943 34.65C94.6955 33.3153 99.915 27.8314 99.915 20.6466C99.915 11.6085 92.7536 5.90339 81.8694 5.90339H61.2217V58.7975H66.5179V36.9458H78.0008C87.1733 36.9458 90.1515 38.8754 92.9838 45.5415L98.5718 58.7975H104.459L98.0498 44.1305ZM66.5103 32.3466V10.4949H81.4933C89.3225 10.4949 94.4652 14.4229 94.4652 21.2339C94.4652 28.0449 89.0999 32.3466 81.1939 32.3466H66.5103Z" fill="#594538"/>
</svg>
