<?xml version="1.0" encoding="UTF-8"?>
<svg xmlns="http://www.w3.org/2000/svg" version="1.1" viewBox="0 0 22 22">
  <defs>
    <style>
      .cls-1 {
        fill: none;
        stroke: #4b3828;
        stroke-linecap: round;
        stroke-linejoin: round;
        stroke-width: .5px;
      }
    </style>
  </defs>
  <!-- Generator: Adobe Illustrator 28.7.5, SVG Export Plug-In . SVG Version: 1.2.0 Build 176)  -->
  <g>
    <g id="Capa_1">
      <path class="cls-1" d="M16.5,5.5h0M6,1h10c2.8,0,5,2.2,5,5v10c0,2.8-2.2,5-5,5H6c-2.8,0-5-2.2-5-5V6C1,3.2,3.2,1,6,1ZM15,10.4c.1.8,0,1.7-.4,2.4-.4.7-1,1.4-1.8,1.7-.8.4-1.6.5-2.4.4-.8-.1-1.6-.5-2.2-1.1-.6-.6-1-1.4-1.1-2.2-.1-.8,0-1.7.4-2.4.4-.8,1-1.4,1.7-1.8.7-.4,1.6-.5,2.4-.4.8.1,1.6.5,2.2,1.1.6.6,1,1.4,1.1,2.2Z"/>
    </g>
  </g>
</svg>